<svg width="24" height="24" viewBox="0 0 24 24" fill="none" xmlns="http://www.w3.org/2000/svg">
<path d="M10.75 22H4.917C3.76649 21.9989 2.8341 21.0665 2.833 19.916V10.216C2.01621 9.63641 1.7619 8.53756 2.241 7.65803C3.141 6.05003 4.059 4.46503 4.962 2.94603C5.32416 2.35303 5.97118 1.99383 6.666 1.99995C7.08952 2.00426 7.50148 2.13867 7.846 2.38503L7.87 2.40003C8.282 2.64003 12.262 5.00903 15.461 6.91203L18.3 8.60003L18.43 8.67703C20.648 9.98803 21.147 10.286 21.175 10.305C21.9915 10.8831 22.2426 11.9828 21.758 12.858C20.875 14.435 19.958 16.02 19.037 17.57C18.6795 18.1566 18.0439 18.5164 17.357 18.521C17.2224 18.5211 17.0882 18.506 16.957 18.476C16.841 18.545 16.201 18.956 15.39 19.476C13.947 20.401 11.975 21.666 11.747 21.783C11.4394 21.9414 11.0956 22.0162 10.75 22ZM4.5 13.03V19.916C4.5 20.1463 4.6867 20.333 4.917 20.333H8.74C7.287 17.88 5.861 15.422 4.5 13.03ZM5.858 12.03C6.258 12.717 10.574 20.162 10.61 20.212C10.6669 20.2859 10.7548 20.3291 10.848 20.329C10.8972 20.329 10.9456 20.3171 10.989 20.294C11.124 20.218 15.183 17.61 15.223 17.584C14.909 17.399 12.637 16.045 10.231 14.612L5.838 12L5.845 12.011L5.855 12.028V12.034L5.858 12.03ZM6.332 3.90003C5.524 5.20003 3.716 8.42803 3.692 8.48703C3.63271 8.62868 3.68531 8.79241 3.816 8.87303C3.949 8.95203 17.17 16.829 17.296 16.849C17.312 16.8502 17.328 16.8502 17.344 16.849C17.4526 16.8494 17.5536 16.7929 17.61 16.7C18.424 15.333 20.299 12.043 20.304 12.033C20.3619 11.8908 20.3092 11.7275 20.179 11.646C20.052 11.57 6.856 3.72803 6.771 3.69103C6.73237 3.67477 6.69091 3.66627 6.649 3.66603C6.54369 3.66661 6.44568 3.71993 6.388 3.80803L6.381 3.82003L6.373 3.83203L6.361 3.85203V3.85703L6.346 3.88103L6.331 3.90003H6.332ZM7.685 9.39003C6.76554 9.38948 6.02037 8.64415 6.02 7.7247C6.01964 6.80524 6.76422 6.05932 7.68367 6.05803C8.60313 6.05675 9.34979 6.80058 9.352 7.72003C9.3509 8.64024 8.6052 9.38593 7.685 9.38703V9.39003Z" fill="#59D929"/>
</svg>
