<svg width="54" height="61" viewBox="0 0 54 61" fill="none" xmlns="http://www.w3.org/2000/svg">
<path d="M26.339 59.537C26.179 59.48 25.474 59.032 24.034 58.07C20.418 55.656 16.884 52.916 13.63 50.003C10.958 47.61 7.672 44.288 5.554 41.837C4.479 40.594 3.77 38.91 3.595 37.183C3.566 36.9 3.553 31.92 3.553 21.845C3.553 5.831 3.543 6.595 3.75 5.893C4.148 4.536 5.21 3.355 6.501 2.832C7.044 2.612 7.391 2.541 8.564 2.41C12.907 1.925 16.698 1.652 21.626 1.469C23.431 1.402 29.859 1.402 31.663 1.469C36.592 1.652 40.383 1.925 44.726 2.41C45.898 2.54 46.246 2.612 46.788 2.832C47.342 3.056 47.785 3.352 48.272 3.827C48.902 4.44 49.255 5.006 49.511 5.812C49.751 6.568 49.737 5.60699 49.737 21.845C49.737 31.92 49.723 36.9 49.694 37.183C49.534 38.756 48.958 40.245 48.037 41.46C47.155 42.624 43.497 46.44 41.271 48.521C38.181 51.409 35.101 53.94 31.745 56.349C29.931 57.651 27.245 59.432 26.935 59.539C26.767 59.596 26.505 59.595 26.339 59.537ZM27.943 56.61C32.984 53.24 37.388 49.627 41.712 45.317C43.669 43.366 45.872 40.977 46.427 40.204C47.057 39.327 47.461 38.213 47.571 37.051C47.601 36.725 47.611 32.21 47.602 21.771C47.591 8.057 47.585 6.938 47.522 6.738C47.34 6.158 46.961 5.57 46.563 5.251C46.291 5.034 45.78 4.78 45.449 4.698C45.316 4.665 44.625 4.574 43.913 4.498C32.242 3.23 21.08 3.23 9.382 4.494C7.942 4.65 7.72 4.693 7.301 4.892C6.554 5.246 6.041 5.852 5.779 6.691L5.684 6.993V22.053C5.684 38.24 5.672 37.231 5.889 38.1C6.069 38.826 6.443 39.638 6.87 40.234C7.38499 40.953 9.675 43.433 11.564 45.317C15.204 48.949 18.96 52.124 23.102 55.072C24.286 55.915 26.571 57.452 26.639 57.452C26.663 57.452 27.249 57.074 27.943 56.61ZM26.81 55.25C26.72 55.21 26.242 54.9 25.749 54.563C19.802 50.502 14.395 45.787 9.54599 40.435C8.80599 39.619 8.577 39.323 8.357 38.902C8.157 38.52 8.03699 38.187 7.917 37.69L7.831 37.327L7.81899 22.519C7.81 12.214 7.81999 7.648 7.85 7.504C7.91 7.221 8.09299 6.99 8.35499 6.866C8.54199 6.776 8.751 6.745 10.068 6.603C13.648 6.216 17.409 5.938 21.038 5.793C22.818 5.723 25.995 5.663 27.221 5.677C28.349 5.69 28.421 5.695 28.577 5.777C28.789 5.89 28.987 6.095 29.067 6.285C29.125 6.42 29.132 8.817 29.132 30.148C29.132 47.767 29.12 53.895 29.085 53.998C29.059 54.073 28.995 54.192 28.942 54.262C28.832 54.408 27.892 55.098 27.615 55.236C27.387 55.35 27.043 55.356 26.81 55.25ZM27 30.145V7.093L25.24 7.121C20.109 7.203 15.61 7.474 10.925 7.983C10.416 8.039 9.986 8.084 9.969 8.084C9.95199 8.084 9.943 14.633 9.949 22.636L9.95899 37.188L10.067 37.487C10.23 37.937 10.375 38.15 11.035 38.904C12.699 40.804 15.649 43.85 17.343 45.414C19.869 47.748 22.234 49.718 24.787 51.615C25.477 52.129 26.966 53.198 26.99 53.198C26.995 53.198 27 42.824 27 30.145Z" fill="white"/>
</svg>
