<svg width="54" height="54" viewBox="0 0 54 54" fill="none" xmlns="http://www.w3.org/2000/svg">
<g clip-path="url(#clip0_48_69)">
<path d="M20.263 30.146C13.047 30.146 7.17599 36.659 7.17599 44.665V51.998C7.17599 52.361 7.46999 52.655 7.83099 52.655H44.252C44.614 52.655 44.908 52.361 44.908 51.998V44.669C44.908 36.66 39.035 30.145 31.817 30.145H31.593V25.41C34.619 23.562 36.552 20.275 36.629 16.615C37.473 16.389 38.099 15.623 38.099 14.706V13.206C38.099 12.443 37.665 11.788 37.035 11.457C36.858 6.645 33.685 2.583 29.141 1.342C29.044 0.620998 28.435 0.0599976 27.694 0.0599976H24.554C23.793 0.0599976 23.172 0.649998 23.101 1.401C18.561 2.63 15.391 6.671 15.211 11.456C14.582 11.788 14.147 12.443 14.147 13.205V14.705C14.147 15.623 14.774 16.389 15.619 16.614C15.695 20.223 17.574 23.471 20.546 25.339V30.145L20.263 30.146ZM38.511 51.34H26.765V40.314C26.765 39.49 27.198 38.747 27.87 38.42C30.315 37.23 31.835 33.9 31.86 31.463C32.666 31.466 33.454 31.56 34.215 31.737C33.611 37.175 35.405 39.611 37.055 41.122C38.129 42.107 38.511 43.656 38.511 44.684V51.34ZM30.536 31.802C30.378 34.008 28.96 36.428 27.297 37.238C26.819 37.471 26.419 37.829 26.111 38.261C25.805 37.829 25.407 37.471 24.932 37.238C23.298 36.438 21.902 34.058 21.722 31.871C23.08 32.612 24.573 32.987 26.067 32.987C27.607 32.987 29.145 32.589 30.536 31.802ZM20.392 31.461C20.417 33.897 21.926 37.229 24.357 38.42C25.023 38.747 25.454 39.49 25.454 40.315V51.34H13.965V44.684C13.965 43.657 14.346 42.107 15.422 41.122C17.078 39.605 18.881 37.155 18.253 31.667C18.908 31.54 19.577 31.46 20.263 31.46H20.393L20.392 31.461ZM8.487 44.665C8.487 38.666 12.076 33.598 16.97 31.996C17.472 36.765 15.946 38.862 14.538 40.151C12.745 41.794 12.654 44.216 12.654 44.684V51.341H8.48599V44.665H8.487ZM43.597 44.669V51.339H39.821V44.684C39.821 44.215 39.73 41.794 37.937 40.151C36.542 38.873 35.032 36.803 35.491 32.127C40.191 33.864 43.597 38.825 43.597 44.669ZM35.715 11.223H29.16V2.71C32.868 3.884 35.455 7.242 35.715 11.224V11.223ZM24.553 1.375H27.693C27.779 1.375 27.85 1.45 27.85 1.541V11.224H24.397V1.54C24.397 1.449 24.467 1.374 24.553 1.374V1.375ZM23.086 2.766V11.223H16.532C16.792 7.264 19.381 3.928 23.086 2.766ZM15.458 13.206C15.458 12.837 15.756 12.538 16.123 12.538H36.125C36.492 12.538 36.79 12.838 36.79 13.205V14.706C36.79 15.074 36.492 15.373 36.125 15.373H16.123C15.756 15.373 15.458 15.074 15.458 14.706V13.206ZM16.932 16.688H35.315C35.211 19.945 33.43 22.849 30.683 24.42L30.679 24.422C30.155 24.721 29.6 24.978 29.011 25.172C28.984 25.181 26.307 25.993 23.246 25.176C19.558 23.955 17.056 20.567 16.932 16.688ZM22.872 26.436C24.05 26.75 25.164 26.856 26.127 26.856C28.013 26.856 29.325 26.453 29.412 26.425C29.71 26.326 29.999 26.213 30.282 26.09V30.431L30.084 30.551C27.592 32.051 24.501 32.043 22.017 30.531L21.858 30.434V26.036C22.188 26.182 22.523 26.32 22.872 26.436Z" fill="#59D929" stroke="#59D929" stroke-width="0.3"/>
</g>
<defs>
<clipPath id="clip0_48_69">
<rect width="54" height="54" fill="white"/>
</clipPath>
</defs>
</svg>
