<svg width="54" height="61" viewBox="0 0 54 61" fill="none" xmlns="http://www.w3.org/2000/svg">
<path d="M35.974 44.981C35.644 44.611 35.086 44.586 34.726 44.926C33.88 45.727 32.991 46.499 32.082 47.221C31.695 47.528 31.623 48.1 31.921 48.499C32.095 48.732 32.356 48.854 32.621 48.854C32.809 48.854 32.999 48.792 33.159 48.664C34.109 47.911 35.038 47.105 35.921 46.269C36.281 45.929 36.304 45.352 35.974 44.981ZM41.35 39.555C40.963 39.248 40.408 39.324 40.111 39.723C39.412 40.662 38.665 41.581 37.891 42.453C37.561 42.824 37.585 43.401 37.945 43.741C38.115 43.901 38.328 43.981 38.542 43.981C38.781 43.981 39.019 43.881 39.193 43.684C40.003 42.773 40.783 41.814 41.513 40.833C41.81 40.433 41.737 39.861 41.35 39.555ZM30.499 49.835C30.236 49.411 29.69 49.287 29.279 49.558C28.312 50.196 27.307 50.798 26.29 51.346C25.858 51.579 25.69 52.13 25.917 52.576C26.075 52.886 26.382 53.065 26.7 53.065C26.838 53.065 26.978 53.031 27.11 52.961C28.17 52.389 29.221 51.761 30.231 51.094C30.642 50.823 30.762 50.259 30.499 49.835ZM24.32 52.932C24.132 52.467 23.615 52.247 23.165 52.44C22.105 52.895 21.013 53.306 19.92 53.663C19.455 53.814 19.197 54.326 19.344 54.806C19.464 55.195 19.811 55.443 20.186 55.443C20.275 55.443 20.364 55.43 20.453 55.401C21.595 55.028 22.736 54.598 23.843 54.123C24.293 53.93 24.507 53.397 24.32 52.932ZM18.014 55.448C17.908 54.958 17.436 54.648 16.96 54.756C15.841 55.012 14.697 55.221 13.558 55.376C13.074 55.441 12.734 55.899 12.798 56.398C12.856 56.856 13.236 57.19 13.672 57.19C13.711 57.19 13.75 57.188 13.789 57.182C14.979 57.021 16.174 56.803 17.343 56.536C17.819 56.426 18.119 55.94 18.013 55.449L18.014 55.448ZM48.147 19.868C47.663 19.803 47.22 20.155 47.157 20.654C47.008 21.829 46.807 23.01 46.561 24.164C46.456 24.655 46.757 25.142 47.233 25.25C47.297 25.265 47.361 25.272 47.424 25.272C47.83 25.272 48.195 24.982 48.286 24.557C48.544 23.351 48.753 22.117 48.909 20.89C48.972 20.39 48.631 19.933 48.147 19.868ZM44.27 33.558C43.838 33.326 43.304 33.499 43.079 33.946C42.549 34.994 41.967 36.032 41.349 37.032C41.087 37.456 41.209 38.019 41.619 38.29C41.767 38.387 41.931 38.433 42.094 38.433C42.385 38.433 42.671 38.284 42.839 38.012C43.485 36.968 44.092 35.883 44.646 34.788C44.871 34.342 44.703 33.792 44.27 33.558ZM47.12 26.996C46.654 26.845 46.158 27.111 46.012 27.592C45.668 28.72 45.27 29.847 44.832 30.94C44.644 31.405 44.858 31.938 45.309 32.13C45.419 32.178 45.534 32.2 45.647 32.2C45.993 32.2 46.322 31.989 46.463 31.638C46.923 30.495 47.337 29.318 47.697 28.138C47.844 27.658 47.585 27.147 47.12 26.996Z" fill="white"/>
<path d="M51.092 14.918L45.442 11.033L45.438 11.031L45.437 11.03L45.427 11.024C45.407 11.01 45.385 10.996 45.362 10.984L45.337 10.971C45.319 10.962 45.302 10.953 45.284 10.946C45.272 10.94 45.259 10.936 45.247 10.932C45.232 10.926 45.217 10.92 45.203 10.916L45.156 10.903L45.119 10.894L45.062 10.885L45.033 10.881L44.96 10.877H14.378C13.692 10.079 12.852 9.45301 11.908 9.03501V3.03801C11.909 2.53601 11.514 2.12801 11.026 2.12801H7.25602C6.76902 2.12801 6.37302 2.53601 6.37302 3.03901V9.03401C3.81202 10.166 2.13202 12.755 2.13202 15.676C2.13202 18.596 3.81202 21.186 6.37202 22.317V50.669C6.37202 51.172 6.76802 51.58 7.25602 51.58H8.27802L8.25702 56.826C8.25502 57.329 8.64902 57.739 9.13702 57.741H9.14102C9.62702 57.741 10.021 57.335 10.024 56.833L10.044 51.58H11.025C11.513 51.58 11.908 51.172 11.908 50.669V22.317C12.852 21.899 13.692 21.273 14.378 20.475H44.956C44.991 20.475 45.026 20.472 45.06 20.467L45.093 20.462C45.125 20.457 45.156 20.45 45.186 20.441L45.204 20.436C45.241 20.424 45.277 20.41 45.312 20.394L45.334 20.383C45.369 20.365 45.404 20.346 45.436 20.323H45.438L45.439 20.321C45.441 20.321 45.442 20.319 45.443 20.318L51.092 16.434C51.337 16.265 51.485 15.981 51.485 15.676C51.485 15.371 51.337 15.086 51.092 14.918ZM8.13902 3.95101H10.142V8.52201C9.47802 8.42501 8.80202 8.42501 8.13902 8.52201V3.95101ZM10.142 49.758H9.16802H8.13902V22.83C8.46902 22.88 8.80402 22.905 9.14002 22.905C9.47702 22.905 9.81002 22.879 10.141 22.83V49.758H10.142ZM13.271 19.003C12.622 19.857 11.755 20.484 10.763 20.817L10.761 20.818L10.754 20.821C9.71102 21.168 8.57102 21.168 7.52802 20.821C5.35802 20.097 3.89902 18.03 3.89902 15.676C3.89902 13.322 5.35702 11.254 7.52802 10.531C8.57102 10.183 9.71102 10.183 10.754 10.531L10.762 10.534C11.755 10.867 12.622 11.494 13.27 12.349C13.998 13.308 14.382 14.459 14.382 15.676C14.382 16.893 13.998 18.044 13.271 19.003ZM44.064 18.653H15.529C15.816 17.999 16.007 17.306 16.094 16.587H44.064V18.653ZM44.064 14.764H16.094C16.007 14.046 15.816 13.352 15.529 12.699H44.065L44.064 14.764ZM45.831 17.861V13.49L49.009 15.676L45.831 17.861Z" fill="white"/>
<path d="M8.93604 12.176C8.44804 12.176 8.05304 12.584 8.05304 13.088C8.05304 13.591 8.44804 13.999 8.93604 13.999C9.87804 13.999 10.644 14.789 10.644 15.761C10.644 16.732 9.87804 17.523 8.93604 17.523C8.44804 17.523 8.05304 17.931 8.05304 18.434C8.05304 18.937 8.44804 19.345 8.93604 19.345C10.853 19.345 12.411 17.737 12.411 15.761C12.411 13.784 10.852 12.176 8.93604 12.176Z" fill="white"/>
</svg>
