<svg width="54" height="54" viewBox="0 0 54 54" fill="none" xmlns="http://www.w3.org/2000/svg">
<g clip-path="url(#clip0_48_71)">
<path d="M37.119 23.743H16.881C16.224 23.743 15.686 24.281 15.686 24.938C15.686 25.595 16.224 26.133 16.881 26.133H37.119C37.776 26.133 38.314 25.595 38.314 24.938C38.314 24.281 37.776 23.743 37.119 23.743ZM16.881 19.132H28.41C29.067 19.132 29.604 18.594 29.604 17.937C29.604 17.28 29.067 16.742 28.41 16.742H16.88C16.223 16.742 15.685 17.28 15.685 17.937C15.685 18.594 16.223 19.132 16.88 19.132H16.881ZM37.119 30.744H16.881C16.224 30.744 15.686 31.282 15.686 31.939C15.686 32.596 16.224 33.134 16.881 33.134H37.119C37.776 33.134 38.314 32.596 38.314 31.939C38.314 31.282 37.776 30.744 37.119 30.744Z" fill="#59D929" stroke="white" stroke-width="0.5"/>
<path d="M52.746 2H1.254C0.596998 2 0.0599976 2.538 0.0599976 3.195V15.5C0.0599976 16.157 0.596998 16.695 1.254 16.695H9.892V44.292C9.892 44.698 10.095 45.069 10.43 45.296C10.764 45.511 11.194 45.546 11.565 45.391L16.295 43.312L21.205 45.392C21.505 45.522 21.839 45.522 22.15 45.392L27 43.312L31.85 45.392C32.15 45.522 32.484 45.522 32.794 45.392L37.704 43.312L42.435 45.392C42.591 45.462 42.758 45.487 42.913 45.487C43.14 45.487 43.367 45.427 43.57 45.296C43.905 45.081 44.108 44.698 44.108 44.292V16.695H52.746C53.403 16.695 53.94 16.157 53.94 15.5V3.195C53.94 2.538 53.403 2 52.746 2ZM2.449 14.305V4.39H9.892V14.306L2.449 14.305ZM38.182 40.911C37.884 40.78 37.537 40.78 37.238 40.911L32.328 43.001L27.478 40.923C27.179 40.792 26.833 40.792 26.534 40.923L21.684 43.002L16.774 40.912C16.474 40.78 16.128 40.78 15.83 40.912L12.293 42.464V4.39H41.731V42.465L38.182 40.911ZM51.551 14.305H44.108V4.39H51.551V14.305Z" fill="#59D929" stroke="white" stroke-width="0.5"/>
</g>
<defs>
<clipPath id="clip0_48_71">
<rect width="54" height="54" fill="white"/>
</clipPath>
</defs>
</svg>
