<svg width="54" height="61" viewBox="0 0 54 61" fill="none" xmlns="http://www.w3.org/2000/svg">
<path d="M31.322 37.327C40.314 37.327 47.605 30.083 47.605 21.147C47.605 12.209 40.315 4.965 31.322 4.965H13.953C13.353 4.965 12.869 5.448 12.869 6.044V35.168H9.612C9.012 35.168 8.526 35.652 8.526 36.249C8.526 36.844 9.013 37.327 9.612 37.327H12.869V41.641H9.612C9.012 41.641 8.526 42.124 8.526 42.721C8.526 43.316 9.013 43.799 9.612 43.799H12.869V55.667C12.869 56.261 13.354 56.744 13.953 56.744C14.553 56.744 15.039 56.261 15.039 55.667V43.799H33.493C34.093 43.799 34.579 43.316 34.579 42.722C34.579 42.124 34.092 41.641 33.493 41.641H15.039V37.327H31.322ZM15.04 7.123H31.323C33.23 7.123 35.078 7.493 36.816 8.223C38.496 8.93 40.006 9.941 41.301 11.23C42.599 12.518 43.617 14.019 44.327 15.688C45.062 17.415 45.436 19.252 45.436 21.146C45.436 23.04 45.062 24.876 44.327 26.604C43.617 28.274 42.599 29.774 41.301 31.062C40.006 32.352 38.496 33.362 36.816 34.069C35.078 34.799 33.23 35.169 31.323 35.169H15.04V7.123Z" fill="white"/>
</svg>
