<svg width="62" height="62" viewBox="0 0 62 62" fill="none" xmlns="http://www.w3.org/2000/svg">
<g clip-path="url(#clip0_54_13)">
<path d="M55.385 11.86H57.3C57.6209 11.86 57.9287 11.7325 58.1556 11.5056C58.3825 11.2787 58.51 10.9709 58.51 10.65C58.51 10.3291 58.3825 10.0213 58.1556 9.7944C57.9287 9.56748 57.6209 9.44 57.3 9.44H52.702C52.3811 9.44 52.0733 9.56748 51.8464 9.7944C51.6195 10.0213 51.492 10.3291 51.492 10.65V15.248C51.492 15.5689 51.6195 15.8767 51.8464 16.1036C52.0733 16.3305 52.3811 16.458 52.702 16.458C53.0229 16.458 53.3307 16.3305 53.5576 16.1036C53.7845 15.8767 53.912 15.5689 53.912 15.248V13.916C57.5981 18.8484 59.5867 24.8424 59.58 31C59.58 46.759 46.759 59.58 31 59.58C15.241 59.58 2.42 46.759 2.42 31C2.42 15.241 15.241 2.42 31 2.42C32.166 2.42 33.339 2.491 34.487 2.63C34.8028 2.66321 35.119 2.57097 35.3673 2.37317C35.6157 2.17537 35.7764 1.88786 35.8147 1.57266C35.8531 1.25746 35.7659 0.939823 35.5722 0.688271C35.3784 0.43672 35.0935 0.271411 34.779 0.228C33.5251 0.0761583 32.2631 2.02789e-05 31 0C22.72 0 14.935 3.225 9.08 9.08C3.225 14.935 0 22.72 0 31C0 39.28 3.225 47.065 9.08 52.92C14.935 58.775 22.72 62 31 62C39.28 62 47.065 58.776 52.92 52.92C58.775 47.065 62 39.28 62 31C62.0076 24.0581 59.6774 17.3158 55.385 11.86Z" fill="white"/>
<path d="M13.127 18.275C12.9927 18.19 12.843 18.1322 12.6864 18.105C12.5298 18.0778 12.3694 18.0817 12.2143 18.1165C12.0592 18.1514 11.9125 18.2164 11.7826 18.3079C11.6526 18.3995 11.542 18.5157 11.457 18.65C8.69398 23.013 7.47098 28.26 8.01298 33.426C8.57292 38.6879 10.9172 43.5995 14.656 47.344C19.162 51.85 25.081 54.104 31 54.104C36.92 54.104 42.838 51.85 47.344 47.344C56.356 38.332 56.356 23.668 47.344 14.656C43.6047 10.9228 38.7016 8.58 33.448 8.01603C28.2847 7.4713 23.0879 8.67411 18.689 11.432C18.4175 11.6032 18.2252 11.8752 18.1543 12.1882C18.0834 12.5012 18.1398 12.8296 18.311 13.101C18.4822 13.3725 18.7542 13.5648 19.0672 13.6357C19.3802 13.7066 19.7085 13.6502 19.98 13.479C28.201 8.29803 38.75 9.48503 45.632 16.368C53.701 24.436 53.701 37.564 45.632 45.633C37.564 53.701 24.436 53.701 16.368 45.633C9.57998 38.845 8.37499 28.042 13.502 19.945C13.5871 19.8108 13.6448 19.661 13.672 19.5044C13.6992 19.3478 13.6953 19.1874 13.6605 19.0323C13.6256 18.8773 13.5606 18.7306 13.4691 18.6006C13.3775 18.4707 13.2613 18.36 13.127 18.275Z" fill="white"/>
<path d="M46.732 32.23H48.224C48.5449 32.23 48.8527 32.1026 49.0796 31.8756C49.3065 31.6487 49.434 31.341 49.434 31.02C49.434 30.6991 49.3065 30.3914 49.0796 30.1644C48.8527 29.9375 48.5449 29.81 48.224 29.81H46.732C46.4111 29.81 46.1033 29.9375 45.8764 30.1644C45.6495 30.3914 45.522 30.6991 45.522 31.02C45.522 31.341 45.6495 31.6487 45.8764 31.8756C46.1033 32.1026 46.4111 32.23 46.732 32.23ZM12.566 30.98C12.566 31.649 13.107 32.19 13.776 32.19H15.268C15.5889 32.19 15.8967 32.0626 16.1236 31.8356C16.3505 31.6087 16.478 31.301 16.478 30.98C16.478 30.6591 16.3505 30.3514 16.1236 30.1244C15.8967 29.8975 15.5889 29.77 15.268 29.77H13.776C13.4551 29.77 13.1473 29.8975 12.9204 30.1244C12.6935 30.3514 12.566 30.6591 12.566 30.98ZM32.23 15.268V13.776C32.23 13.4551 32.1025 13.1474 31.8756 12.9204C31.6487 12.6935 31.3409 12.566 31.02 12.566C30.6991 12.566 30.3913 12.6935 30.1644 12.9204C29.9375 13.1474 29.81 13.4551 29.81 13.776V15.268C29.81 15.589 29.9375 15.8967 30.1644 16.1236C30.3913 16.3506 30.6991 16.478 31.02 16.478C31.3409 16.478 31.6487 16.3506 31.8756 16.1236C32.1025 15.8967 32.23 15.589 32.23 15.268ZM29.77 46.732V48.224C29.77 48.5449 29.8975 48.8527 30.1244 49.0796C30.3513 49.3066 30.6591 49.434 30.98 49.434C31.3009 49.434 31.6087 49.3066 31.8356 49.0796C32.0625 48.8527 32.19 48.5449 32.19 48.224V46.732C32.19 46.4111 32.0625 46.1034 31.8356 45.8764C31.6087 45.6495 31.3009 45.522 30.98 45.522C30.6591 45.522 30.3513 45.6495 30.1244 45.8764C29.8975 46.1034 29.77 46.4111 29.77 46.732ZM24.934 23.223C24.7059 23.0018 24.4 22.8792 24.0823 22.8816C23.7646 22.884 23.4606 23.0113 23.2359 23.236C23.0112 23.4606 22.884 23.7646 22.8815 24.0824C22.8791 24.4001 23.0018 24.706 23.223 24.934L27.324 29.036C26.9998 29.6399 26.8304 30.3147 26.831 31C26.8323 32.1055 27.2721 33.1653 28.0539 33.9469C28.8356 34.7284 29.8955 35.168 31.001 35.169C32.1059 35.1672 33.165 34.7273 33.9462 33.9458C34.7273 33.1643 35.1667 32.105 35.168 31C35.168 30.29 34.989 29.621 34.675 29.036L42.95 20.76C43.1712 20.532 43.2938 20.2261 43.2914 19.9084C43.289 19.5906 43.1617 19.2866 42.937 19.062C42.7124 18.8373 42.4084 18.71 42.0907 18.7076C41.773 18.7052 41.467 18.8278 41.239 19.049L32.963 27.324C32.3595 26.9999 31.685 26.8306 31 26.831C30.29 26.831 29.621 27.01 29.036 27.324L24.934 23.223ZM32.75 31C32.7497 31.464 32.5652 31.9089 32.2371 32.2368C31.9089 32.5648 31.4639 32.749 31 32.749C30.5362 32.7488 30.0915 32.5644 29.7635 32.2365C29.4356 31.9085 29.2512 31.4638 29.251 31C29.2512 30.5361 29.4357 30.0912 29.7639 29.7633C30.0921 29.4353 30.537 29.251 31.001 29.251C31.4644 29.2518 31.9086 29.4364 32.2361 29.7643C32.5636 30.0922 32.7477 30.5366 32.748 31H32.75ZM16.367 16.367C16.593 16.142 16.723 15.83 16.723 15.511C16.723 15.193 16.593 14.882 16.367 14.656C16.1396 14.4295 15.8319 14.302 15.511 14.301C15.193 14.301 14.881 14.431 14.656 14.656C14.4299 14.8833 14.3024 15.1905 14.301 15.511C14.301 15.831 14.431 16.141 14.656 16.367C14.881 16.592 15.193 16.721 15.511 16.721C15.831 16.721 16.141 16.591 16.367 16.367Z" fill="white"/>
</g>
<defs>
<clipPath id="clip0_54_13">
<rect width="62" height="62" fill="white"/>
</clipPath>
</defs>
</svg>
