<svg width="54" height="54" viewBox="0 0 54 54" fill="none" xmlns="http://www.w3.org/2000/svg">
<path d="M41.826 39.86L41.648 39.743C41.036 39.325 38.28 37.529 36.461 36.337C35.686 35.826 35.036 35.415 34.796 35.253C33.026 34.131 30.689 34.586 29.47 36.29L29.253 36.561C28.572 37.413 27.867 38.303 26.737 38.365C25.127 38.465 22.866 37.018 19.939 34.092C17.013 31.165 15.573 28.874 15.659 27.294C15.728 26.156 16.61 25.452 17.462 24.77L17.71 24.523C19.403 23.297 19.842 20.96 18.708 19.203L17.686 17.655C16.471 15.805 14.644 13.01 14.226 12.375L14.11 12.205C13.483 11.276 12.445 9.728 10.239 10.045C8.72 10.24 3 13.212 3 19.668C3 25.281 7.103 32.598 14.257 39.751C21.41 46.905 28.71 51 34.324 51C40.781 51 43.761 45.271 43.978 43.73C44.295 41.524 42.748 40.479 41.826 39.86ZM42.446 43.514C42.275 44.721 39.696 49.452 34.324 49.452C29.121 49.452 22.2 45.519 15.341 38.612C8.48 31.708 4.548 24.872 4.548 19.669C4.577 15.96 6.965 12.682 10.486 11.517H10.819C11.756 11.517 12.259 12.152 12.855 13.066L12.979 13.244C13.389 13.847 15.209 16.65 16.417 18.5L17.447 20.049C18.134 21.146 17.834 22.591 16.765 23.324L16.502 23.533C15.542 24.307 14.179 25.344 14.117 27.171C13.994 29.277 15.495 31.816 18.84 35.153C22.185 38.49 24.732 40.007 26.822 39.883C28.649 39.775 29.702 38.459 30.468 37.491L30.678 37.228C31.411 36.15 32.867 35.848 33.968 36.547L35.632 37.638C37.452 38.823 40.2 40.611 40.796 41.022L40.982 41.146C41.934 41.804 42.615 42.353 42.484 43.515H42.445L42.446 43.514ZM25.452 3V4.548C38.706 4.548 49.452 15.294 49.452 28.548H51C51 14.438 39.562 3 25.452 3Z" fill="#59D929" stroke="#59D929" stroke-width="0.5" stroke-linejoin="round"/>
<path d="M43.258 28.548C43.258 18.714 35.286 10.742 25.452 10.742V12.29C34.431 12.29 41.71 19.57 41.71 28.548H43.258ZM33.194 28.548H34.742C34.742 23.418 30.582 19.258 25.452 19.258V20.806C29.727 20.806 33.194 24.273 33.194 28.548Z" fill="#59D929" stroke="#59D929" stroke-width="0.5" stroke-linejoin="round"/>
</svg>
